# AST/ASF file generated using VICON BodyLanguage
# -----------------------------------------------
:version 1.10
:name VICON
:units
  mass 1.0
  length 0.45
  angle deg
:documentation
   .ast/.asf automatically generated from VICON data using
   VICON BodyBuilder and BodyLanguage model FoxedUp or BRILLIANT.MOD
:root
   order TX TY TZ RX RY RZ
   axis XYZ
   position 0 0 0  
   orientation 0 -0 0 
:bonedata
  begin
     id 1 
     name lhipjoint
     direction 0.432694 -0.693742 0.575759 
     length 2.19277 
     axis 0 -0 0  XYZ
  end
  begin
     id 2 
     name lfemur
     direction 0.34202 -0.939693 0  
     length 6.69022  
     axis 0 -0 20  XYZ
    dof rx ry rz
    limits (-160.0 20.0)
           (-70.0 70.0)
           (-60.0 70.0)
  end
  begin
     id 3 
     name ltibia
     direction 0.34202 -0.939693 0   
     length 6.50337   
     axis 0 -0 20   XYZ
    dof rx
    limits (-10.0 170.0)
  end
  begin
     id 4 
     name lfoot
     direction 0.158999 -0.435969 0.885805   
     length 2.70564   
     axis -90 -1.13533e-015 20   XYZ
    dof rx rz
    limits (-45.0 90.0)
           (-70.0 20.0)
  end
  begin
     id 5 
     name ltoes
     direction -0.00592919 0.00964381 0.999936   
     length 1.29929   
     axis -90 -1.13533e-015 20   XYZ
    dof rx
    limits (-90.0 20.0)
  end
  begin
     id 6 
     name rhipjoint
     direction -0.414359 -0.700339 0.581234   
     length 2.17212  
     axis 0 -0 0  XYZ 
  end
  begin
     id 7 
     name rfemur
     direction -0.34202 -0.939693 0   
     length 7.17659   
     axis 0 -0 -20   XYZ
    dof rx ry rz
    limits (-160.0 20.0)
           (-70.0 70.0)
           (-70.0 60.0)
  end
  begin
     id 8 
     name rtibia
     direction -0.34202 -0.939693 0   
     length 6.36669   
     axis 0 -0 -20   XYZ
    dof rx
    limits (-10.0 170.0)
 end
 begin
     id 9 
     name rfoot
     direction -0.137064 -0.37658 0.916188   
     length 2.22351  
     axis -90 1.13533e-015 -20   XYZ
    dof rx rz
    limits (-45.0 90.0)
           (-20.0 70.0)
  end
  begin
     id 10 
     name rtoes
     direction -0.000784077 -0.00289101 0.999996   
     length 1.09522   
     axis -90 1.13533e-015 -20   XYZ
    dof rx
    limits (-90.0 20.0)
  end
  begin
     id 11 
     name lowerback
     direction -0.0176242 0.984912 -0.172157   
     length 1.65301   
     axis 0 -0 0   XYZ
    dof rx ry rz
    limits (-20.0 45.0)
           (-30.0 30.0)
           (-30.0 30.0)
  end
  begin
     id 12 
     name upperback
     direction -0.00218128 0.998776 -0.0494072   
     length 1.67776   
     axis 0 -0 0   XYZ
    dof rx ry rz
    limits (-20.0 45.0)
           (-30.0 30.0)
           (-30.0 30.0)
  end
  begin
     id 13 
     name thorax
     direction 0.00544186 0.999658 0.0255711   
     length 1.72293   
     axis 0 -0 0   XYZ
    dof rx ry rz
    limits (-20.0 45.0)
           (-30.0 30.0)
           (-30.0 30.0)
  end
  begin
     id 14 
     name lowerneck
     direction -0.105325 0.983841 0.144785   
     length 2.14226   
     axis 0 -0 0   XYZ
    dof rx ry rz
    limits (-20.0 45.0)
           (-30.0 30.0)
           (-30.0 30.0)
  end
  begin
     id 15 
     name upperneck
     direction 0.0547957 0.988053 -0.144041   
     length 2.17508   
     axis 0 -0 0   XYZ
    dof rx ry rz
    limits (-20.0 45.0)
           (-30.0 30.0)
           (-30.0 30.0)
  end
  begin
     id 16
     name head
     direction 0.0247488 0.997534 -0.0656813  
     length 2.20048  
     axis 0 -0 0   XYZ
    dof rx ry rz
    limits (-20.0 45.0)
           (-30.0 30.0)
           (-30.0 30.0)
  end
  begin
     id 17 
     name lclavicle
     direction 0.820559 0.567247 -0.0701026  
     length 4.09615  
     axis 0 -0 0   XYZ
    dof ry rz
    limits (-20.0 10.0)
           (0.0 20.0)
  end
  begin
     id 18 
     name lhumerus
     direction 0.999977 -0.0067566 -9.96392e-005   
     length 4.59333   
     axis -180 -30 -90   XYZ
    dof rx ry rz
    limits (-60.0 90.0)
           (-90.0 90.0)
           (-90.0 90.0)
  end
  begin
     id 19
     name lradius
     direction 1 -4.48982e-011 -2.53425e-027   
     length 2.81151   
     axis -180 -30 -90   XYZ
    dof rx
    limits (-10.0 170.0)
  end
  begin
     id 20
     name lwrist
     direction 1 -4.48939e-011 -7.39254e-028   
     length 1.40576   
     axis 2.56395e-016 90 90   XYZ
    dof ry
    limits (-180.0 0.0)
 end
  begin
     id 21 
     name lhand
     direction 1 -4.48939e-011 -1.47851e-027   
     length 0.895651   
     axis 9.43423e-016 90 90   XYZ
    dof rx rz
    limits (-90.0 90.0)
           (-45.0 45.0)
  end
  begin
     id 22 
     name lfingers
     direction 1 -4.48978e-011 -2.95702e-027   
     length 0.722097   
     axis 1.88685e-015 90 90   XYZ
    dof rx
    limits (0.0 90.0)
  end
  begin
     id 23
     name lthumb
     direction 0.707107 -6.34931e-011 0.707107   
     length 1.03679   
     axis -90 45 -9.86935e-015   XYZ
    dof rx rz
    limits (-45.0 45.0)
           (-45.0 45.0)
  end
  begin
     id 24 
     name rclavicle
     direction -0.831414 0.553102 -0.0531864   
     length 4.24872  
     axis 0 -0 0   XYZ 
    dof ry rz
    limits (-10.0 20.0)
           (-20.0 0.0)
  end
  begin
     id 25 
     name rhumerus
     direction -0.999916 -0.000939607 0.0129331  
     length 4.74834   
     axis -180 30 90   XYZ
    dof rx ry rz
    limits (-90.0 60.0)
           (-90.0 90.0)
           (-90.0 90.0)
  end
  begin
     id 26 
     name rradius
     direction -1 -4.48956e-011 -1.31752e-027   
     length 2.79907   
     axis -180 30 90   XYZ
    dof rx
    limits (-10.0 170.0)
  end
  begin
     id 27 
     name rwrist
     direction -1 -4.4897e-011 -7.39254e-028   
     length 1.39954   
     axis 2.56395e-016 -90 -90   XYZ
    dof ry
    limits (-180.0 0.0)
  end
  begin
     id 28
     name rhand
     direction -0.999997 -0.00250697 0.000800838   
     length 0.953304   
     axis 9.43423e-016 -90 -90   XYZ
    dof rx rz
    limits (-90.0 90.0)
           (-45.0 45.0)
  end
  begin
     id 29
     name rfingers
     direction -1 -4.48954e-011 -2.95702e-027   
     length 0.763342   
     axis 1.88685e-015 -90 -90   XYZ
    dof rx
    limits (0.0 90.0)
  end
  begin
     id 30
     name rthumb
     direction -0.709701 -0.00217037 0.7045   
     length 1.10115   
     axis -90 -45 9.86935e-015   XYZ
    dof rx rz
    limits (-45.0 45.0)
           (-45.0 45.0)
  end
:hierarchy
  begin
    root lhipjoint rhipjoint lowerback
    lhipjoint lfemur
    lfemur ltibia
    ltibia lfoot
    lfoot ltoes
    rhipjoint rfemur
    rfemur rtibia
    rtibia rfoot
    rfoot rtoes
    lowerback upperback
    upperback thorax
    thorax lowerneck lclavicle rclavicle
    lowerneck upperneck
    upperneck head
    lclavicle lhumerus
    lhumerus lradius
    lradius lwrist
    lwrist lhand lthumb
    lhand lfingers
    rclavicle rhumerus
    rhumerus rradius
    rradius rwrist
    rwrist rhand rthumb
    rhand rfingers
  end

#!OML:ASF G:\ViconDB\ViconDB\414\test\team2\shane.ASF
:FULLY-SPECIFIED
:DEGREES
1
root 6.29364 14.3366 -27.8973 23.866 2.64421 -4.10513
lowerback 28.2722 -3.70191 3.16089
upperback 12.7116 -3.72128 2.4579
thorax -1.32992 -1.79204 1.93828
lowerneck -16.6383 -0.525999 -6.0702
upperneck 1.07437 0.00582262 8.21314
head 2.98216 0.354513 3.5139
rclavicle 1.27222e-014 -1.90833e-014
rhumerus 0 -0 0
rradius 0
rwrist 0
rhand -0 0
rfingers 0
rthumb -0 0
lclavicle 1.27222e-014 -1.90833e-014
lhumerus 19.3553 -30.1008 64.3413
lradius 75.9145
lwrist -16.3085
lhand -51.8305 8.59607
lfingers 7.12502
lthumb -24.345 37.0698
rfemur -83.7271 -23.7149 45.5017
rtibia 74.942
rfoot -22.3944 5.66444
rtoes -23.2013
lfemur 7.20796 -2.41426 -12.4907
ltibia 31.2731
lfoot -16.3128 -26.8066
ltoes -34.3938
2
root 6.29516 14.3734 -27.4207 23.3612 2.32628 -3.69596
lowerback 27.7157 -3.78375 3.31275
upperback 12.53 -3.81741 2.48182
thorax -1.28706 -1.83448 1.8804
lowerneck -16.39 -0.534556 -5.93657
upperneck 1.71135 -0.042795 7.67422
head 3.13678 0.30435 3.32211
rclavicle 8.74653e-015 -7.15625e-015
rhumerus 0 0 0
rradius 0
rwrist 0
rhand 0 0
rfingers 0
rthumb 0 0
lclavicle 8.74653e-015 -7.15625e-015
lhumerus 15.6082 -30.9581 66.4808
lradius 73.0635
lwrist -15.0829
lhand -51.3028 8.22528
lfingers 7.12502
lthumb -23.839 36.766
rfemur -80.8041 -24.4143 43.6908
rtibia 75.199
rfoot -22.6962 6.40471
rtoes -18.4742
lfemur 10.0404 -2.91801 -12.8486
ltibia 28.2576
lfoot -7.18582 -28.1885
ltoes -33.3419
3
root 6.28286 14.3897 -26.9345 22.5158 1.88274 -3.30879
lowerback 27.4405 -3.69827 3.14992
upperback 12.4176 -3.7635 2.57218
thorax -1.27275 -1.81936 2.04389
lowerneck -16.2786 -0.592237 -5.97034
upperneck 2.50847 -0.126917 7.25174
head 3.36503 0.242601 3.19361
rclavicle 1.94809e-014 -5.1684e-015
rhumerus 0 0 0
rradius 0
rwrist 0
rhand 0 0
rfingers 0
rthumb 0 0
lclavicle 1.94809e-014 -5.1684e-015
lhumerus 11.7867 -31.6514 68.9528
lradius 69.6145
lwrist -14.0921
lhand -51.0728 7.77333
lfingers 7.12502
lthumb -23.6184 36.3427
rfemur -76.9386 -25.0324 41.3581
rtibia 75.9955
rfoot -26.7281 6.94868
rtoes -16.3451
lfemur 12.4437 -3.62449 -13.4073
ltibia 27.2225
lfoot -0.916488 -28.2063
ltoes -32.0817
4
root 6.28984 14.38 -26.4533 21.943 0.941285 -2.95296
lowerback 26.7133 -3.4793 3.07072
upperback 12.23 -3.55909 2.5128
thorax -1.15231 -1.72349 1.93334
lowerneck -16.177 -0.629307 -5.89564
upperneck 3.49625 -0.186932 6.58463
head 3.65079 0.179435 2.97398
rclavicle 4.92986e-014 -4.09496e-014
rhumerus 0 0 0
rradius 0
rwrist 0
rhand 0 0
rfingers 0
rthumb 0 0
lclavicle 4.92986e-014 -4.09496e-014
lhumerus 7.94358 -31.6823 71.8181
lradius 65.0409
lwrist -14.8839
lhand -50.3196 7.31806
lfingers 7.12502
lthumb -22.8958 35.9788
rfemur -73.4302 -25.128 38.956
rtibia 76.8569
rfoot -30.8551 7.31072
rtoes -17.2864
lfemur 14.1524 -4.05497 -14.4222
ltibia 27.3845
lfoot 2.99203 -25.0421
ltoes -27.5142
5
root 6.28646 14.3787 -25.9918 21.7336 0.176851 -2.48893
lowerback 25.7329 -3.19932 2.82072
upperback 12.0083 -3.31817 2.54438
thorax -0.932845 -1.61808 1.99958
lowerneck -16.3002 -0.709417 -5.64144
upperneck 4.50465 -0.303953 5.73508
head 3.98198 0.0800027 2.66469
rclavicle -7.95139e-016 1.98785e-014
rhumerus 0 0 0
rradius 0
rwrist 0
rhand 0 0
rfingers 0
rthumb 0 0
lclavicle -7.95139e-016 1.98785e-014
lhumerus 4.36542 -31.8461 74.4057
lradius 60.8982
lwrist -14.2814
lhand -49.2536 6.8264
lfingers 7.12502
lthumb -21.8726 35.6102
rfemur -71.3734 -25.4522 37.6281
rtibia 77.6481
rfoot -32.4235 7.38555
rtoes -15.8737
lfemur 14.7305 -3.76904 -15.1432
ltibia 29.1399
lfoot 5.52797 -23.1791
ltoes -19.2866
6
root 6.29228 14.3809 -25.5522 21.8189 -0.461041 -2.32994
lowerback 24.5815 -2.93092 2.94
upperback 11.8001 -3.01286 2.70151
thorax -0.620855 -1.47016 1.97318
lowerneck -16.63 -0.793537 -5.39207
upperneck 5.29522 -0.3862 4.78229
head 4.27723 -0.0107224 2.32483
rclavicle 8.94531e-015 4.96962e-016
rhumerus 0 0 0
rradius 0
rwrist 0
rhand 0 0
rfingers 0
rthumb 0 0
lclavicle 8.94531e-015 4.96962e-016
lhumerus 1.22392 -31.6783 76.9062
lradius 56.1056
lwrist -14.82
lhand -48.1543 6.83159
lfingers 7.12502
lthumb -20.8167 35.7349
rfemur -70.2615 -26.0425 37.5101
rtibia 78.4745
rfoot -31.746 6.88696
rtoes -11.3679
lfemur 13.7814 -2.97729 -15.3675
ltibia 33.0117
lfoot 5.81886 -21.4525
ltoes -13.8536
7
root 6.29547 14.5059 -25.0726 21.9756 -1.21273 -2.49916
lowerback 23.596 -2.44546 3.15963
upperback 11.6445 -2.40539 2.97977
thorax -0.323334 -1.17348 1.96348
lowerneck -16.9216 -0.938681 -5.05174
upperneck 5.55214 -0.546806 3.78766
head 4.40491 -0.144174 1.94618
rclavicle 5.49143e-015 -2.50407e-014
rhumerus 0 0 0
rradius 0
rwrist 0
rhand 0 0
rfingers 0
rthumb 0 0
lclavicle 5.49143e-015 -2.50407e-014
lhumerus -2.01553 -31.517 79.3229
lradius 52.1484
lwrist -14.2859
lhand -46.7567 5.75979
lfingers 7.12502
lthumb -19.4734 34.8046
rfemur -68.3039 -26.5752 37.5683
rtibia 78.8132
rfoot -32.7799 6.42258
rtoes -10.2335
lfemur 11.7635 -1.97818 -15.1585
ltibia 37.9702
lfoot 4.63555 -19.3764
ltoes -17.1312
8
root 6.30065 14.529 -24.6514 22.2308 -1.95264 -2.93592
lowerback 22.7785 -1.92871 3.41532
upperback 11.4882 -1.741 3.36952
thorax -0.0991362 -0.850701 2.05925
lowerneck -17.0862 -1.04493 -4.80338
upperneck 5.22815 -0.646579 2.93558
head 4.32889 -0.240381 1.62962
rclavicle 2.06736e-014 -5.77469e-014
rhumerus 0 0 0
rradius 0
rwrist 0
rhand 0 0
rfingers 0
rthumb 0 0
lclavicle 2.06736e-014 -5.77469e-014
lhumerus -5.04561 -31.1493 81.4071
lradius 48.6437
lwrist -14.3798
lhand -45.9125 5.94825
lfingers 7.12502
lthumb -18.6615 35.0731
rfemur -66.9483 -26.7376 37.835
rtibia 79.3861
rfoot -33.9437 5.55234
rtoes -12.3361
lfemur 9.30859 -1.24454 -14.6822
ltibia 43.8427
lfoot 3.84115 -18.624
ltoes -18.4064
9
root 6.30368 14.5662 -24.2306 22.129 -3.04902 -3.6029
lowerback 22.5323 -1.29068 3.54985
upperback 11.4907 -0.92332 3.81222
thorax 0.0228926 -0.461477 2.27162
lowerneck -17.1122 -1.14181 -4.8009
upperneck 4.36801 -0.696587 2.15206
head 4.06309 -0.30869 1.37837
rclavicle 9.93923e-015 -3.33958e-014
rhumerus 0 0 0
rradius 0
rwrist 0
rhand 0 0
rfingers 0
rthumb 0 0
lclavicle 9.93923e-015 -3.33958e-014
lhumerus -8.05715 -30.0445 83.495
lradius 44.305
lwrist -17.4282
lhand -46.3529 6.98949
lfingers 7.12502
lthumb -19.0851 36.0731
rfemur -64.6824 -26.3733 37.4767
rtibia 79.5864
rfoot -34.34 5.01296
rtoes -12.7529
lfemur 6.81463 0.146779 -13.9471
ltibia 49.9237
lfoot 3.66991 -19.4942
ltoes -17.6477
10
root 6.31056 14.6074 -23.8165 21.6603 -4.27575 -4.31464
lowerback 22.4415 -0.430099 2.90781
upperback 12.1638 0.016501 4.98181
thorax 0.803825 -0.0769902 3.69615
lowerneck -18.5108 -1.45783 -6.16874
upperneck 3.50387 -0.679142 1.51506
head 4.00762 -0.35018 1.39498
rclavicle -3.57812e-015 5.12864e-014
rhumerus 5.59205 4.2807 -93.7656
rradius 87.5089
rwrist -157.537
rhand 10.8408 12.807
rfingers 7.12502
rthumb 35.9234 -13.5283
lclavicle -3.57812e-015 5.12864e-014
lhumerus -9.87633 -27.8496 85.9778
lradius 40.34
lwrist -18.9864
lhand -46.6427 6.16032
lfingers 7.12502
lthumb -19.3638 35.2162
rfemur -61.6773 -25.8665 36.5289
rtibia 79.5682
rfoot -35.0928 4.70934
rtoes -13.9078
lfemur 4.36021 1.65914 -13.2339
ltibia 56.306
lfoot 2.37629 -20.8806
ltoes -17.7797
11
root 6.3061 14.6412 -23.3986 21.1427 -5.36538 -4.64224
lowerback 22.9367 -0.0925123 3.16758
upperback 12.2076 0.498036 4.62651
thorax 0.591829 0.18155 3.06398
lowerneck -18.6433 -1.34249 -5.40359
upperneck 2.61361 -0.691844 1.45013
head 3.74798 -0.335932 1.25213
rclavicle 5.1684e-015 1.59028e-015
rhumerus 8.58291 6.28124 -95.1124
rradius 90.1235
rwrist -157.248
rhand 11.0882 13.4883
rfingers 7.12502
rthumb 36.1577 -12.7893
lclavicle 5.1684e-015 1.59028e-015
lhumerus -13.2766 -26.435 86.3958
lradius 36.9011
lwrist -20.9575
lhand -47.2945 6.00725
lfingers 7.12502
lthumb -19.9904 34.999
rfemur -58.5491 -25.3955 35.0296
rtibia 79.3193
rfoot -35.8382 4.30397
rtoes -15.7637
lfemur 1.63491 2.89254 -12.7475
ltibia 62.611
lfoot 1.01513 -22.4478
ltoes -17.9507
12
root 6.29222 14.67 -22.9838 20.8415 -6.28421 -5.13431
lowerback 23.0619 0.211054 3.52814
upperback 12.2431 0.936269 4.31005
thorax 0.567214 0.422845 2.42158
lowerneck -18.7314 -1.24797 -4.71214
upperneck 1.82829 -0.72954 1.56223
head 3.51694 -0.330541 1.17444
rclavicle -2.42517e-014 -2.34566e-014
rhumerus 11.4906 8.18301 -96.1703
rradius 92.6555
rwrist -158.057
rhand 11.3819 13.4384
rfingers 7.12502
rthumb 36.4358 -12.7698
lclavicle -2.42517e-014 -2.34566e-014
lhumerus -16.6556 -25.3313 86.509
lradius 33.8162
lwrist -21.4814
lhand -48.1983 5.70419
lfingers 7.12502
lthumb -20.8589 34.6028
rfemur -55.4929 -24.7043 33.7415
rtibia 78.8708
rfoot -36.7053 4.0405
rtoes -17.5127
lfemur -1.57598 4.28409 -11.7987
ltibia 68.8125
lfoot -0.405939 -24.5008
ltoes -16.4465
13
root 6.27015 14.6933 -22.5675 20.7701 -7.15586 -5.55206
lowerback 22.6349 0.700654 3.59755
upperback 12.423 1.51811 4.02961
thorax 0.971616 0.725454 1.96002
lowerneck -19.1252 -1.25094 -3.68598
upperneck 1.11165 -0.946748 1.50391
head 3.35534 -0.425894 0.975238
rclavicle 2.78299e-015 6.36111e-015
rhumerus 14.6585 9.8125 -96.839
rradius 95.1942
rwrist -157.772
rhand 11.6914 14.2681
rfingers 7.12502
rthumb 36.7288 -11.866
lclavicle 2.78299e-015 6.36111e-015
lhumerus -19.7572 -25.124 86.5018
lradius 31.2662
lwrist -21.2911
lhand -48.813 7.65975
lfingers 7.12502
lthumb -21.4494 36.4923
rfemur -52.6849 -23.9087 32.535
rtibia 78.2706
rfoot -37.6242 3.86762
rtoes -19.0623
lfemur -5.2635 5.61077 -10.9248
ltibia 74.9015
lfoot -2.81405 -26.2569
ltoes -15.344
14
root 6.24267 14.7137 -22.159 20.6691 -7.64039 -5.90395
lowerback 22.497 1.17939 3.58734
upperback 12.4142 2.10955 3.87759
thorax 1.02705 1.02336 1.68001
lowerneck -19.5261 -1.32586 -2.91053
upperneck 0.712523 -1.22191 1.66966
head 3.29483 -0.545207 0.880421
rclavicle 7.95139e-015 3.89618e-014
rhumerus 17.543 10.9338 -97.2042
rradius 97.4524
rwrist -158.827
rhand 12.4792 14.0345
rfingers 7.12502
rthumb 37.4738 -11.9059
lclavicle 7.95139e-015 3.89618e-014
lhumerus -22.9861 -24.9057 86.5304
lradius 28.891
lwrist -21.4761
lhand -49.3331 9.0128
lfingers 7.12502
lthumb -21.9488 37.7876
rfemur -49.8917 -23.4264 31.5648
rtibia 77.4868
rfoot -38.5099 3.27167
rtoes -20.2152
lfemur -9.13981 6.68855 -9.83982
ltibia 80.7263
lfoot -5.19362 -27.5357
ltoes -13.7583
15
root 6.22072 14.7379 -21.7534 20.6512 -8.12935 -6.17974
lowerback 22.1768 1.75728 3.44571
upperback 12.3324 2.803 3.81302
thorax 1.08323 1.36318 1.55238
lowerneck -19.2392 -1.57146 -2.5844
upperneck -0.351891 -1.64828 1.96893
head 3.33507 -0.744943 0.982194
rclavicle 3.18055e-015 3.65764e-014
rhumerus 20.1242 11.6591 -97.1842
rradius 99.993
rwrist -158.755
rhand 13.0756 14.2778
rfingers 7.12502
rthumb 38.0373 -11.5112
lclavicle 3.18055e-015 3.65764e-014
lhumerus -26.5304 -25.0533 86.8615
lradius 27.5019
lwrist -20.4072
lhand -49.5233 9.29524
lfingers 7.12502
lthumb -22.1315 38.0485
rfemur -47.2229 -22.9828 30.6754
rtibia 76.4901
rfoot -39.2961 2.32442
rtoes -21.1791
lfemur -13.4032 7.83422 -9.00795
ltibia 86.2058
lfoot -7.92432 -27.7135
ltoes -12.7627
